<svg xmlns="http://www.w3.org/2000/svg" viewBox="0 0 256 256" width="48" height="48"><g fill="none" stroke-miterlimit="10" font-family="none" font-weight="none" font-size="none" text-anchor="none" style="mix-blend-mode:normal"><path d="M224 92.267c0 109.333-96 142.4-96 142.4S32 201.6 32 92.267c0-13.334 1.067-24.534 2.133-33.6 1.6-13.334 10.667-24 23.467-27.2 16.533-4.8 42.667-10.134 70.4-10.134 27.733 0 53.867 5.334 70.933 10.134 12.8 3.2 21.867 14.4 23.467 27.2.533 9.066 1.6 20.8 1.6 33.6z"/><path d="M128 37.333c26.133 0 50.667 5.334 66.667 9.6 6.4 1.6 10.666 6.934 11.733 13.867 1.067 10.133 1.6 20.8 1.6 31.467 0 83.2-61.333 116.8-80 124.8-18.667-8.534-80-42.134-80-124.8 0-10.667.533-21.334 1.6-31.467.533-6.933 5.333-12.267 11.733-13.867 16-4.266 40.534-9.6 66.667-9.6m0-16c-27.733 0-53.867 5.334-70.933 10.134-12.267 3.2-21.867 14.4-22.934 27.2-1.066 9.066-2.133 20.8-2.133 33.6 0 109.333 96 142.4 96 142.4s96-33.067 96-142.4c0-13.334-1.067-24.534-2.133-33.6-1.6-13.334-10.667-24-23.467-27.2-16.533-4.8-42.667-10.134-70.4-10.134z" fill="#fff"/><path d="M122.667 149.333h10.666V192h-10.666z" fill="#f3f5f1"/><path d="M128 53.333S96 80 96 122.667C96 150.4 113.6 168 122.667 176L128 160l5.333 16C142.4 168 160 150.4 160 122.667c0-42.667-32-69.334-32-69.334z" fill="#fff"/><path d="M128 53.333S96 80 96 122.667C96 150.4 113.6 168 122.667 176L128 160z" fill="#f7fef7"/></g></svg>