<svg xmlns="http://www.w3.org/2000/svg" viewBox="0 0 256 256" width="48" height="48"><path d="M11.5 2C8.416 2 6 5.582 6 10.154c0 2.07.502 3.928 1.33 5.35-.047.159-.08.322-.08.496A1.75 1.75 0 1 0 9 14.25c-.024 0-.046.007-.07.008C8.36 13.16 8 11.719 8 10.154 8 6.818 9.603 4 11.5 4c1.162 0 2.212 1.059 2.852 2.645a1.028 1.028 0 0 0 .765.632c.761.165 1.406-.602 1.117-1.326C15.285 3.567 13.54 2 11.5 2zm-.125 6.5a1.75 1.75 0 0 0 0 3.5c.687 0 1.276-.399 1.563-.975 1.292.058 2.731.433 4.09 1.168 1.96 1.062 3.438 2.692 3.855 4.256.215.803.138 1.509-.223 2.096-.662 1.077-2.173 1.559-3.94 1.434a1.009 1.009 0 0 0-.77.269l-.018.018c-.616.579-.28 1.642.562 1.713.25.02.496.021.74.021 2.234 0 4.15-.815 5.13-2.408.652-1.06.807-2.323.45-3.658-.564-2.107-2.372-4.164-4.835-5.498-1.8-.975-3.672-1.43-5.366-1.422a1.741 1.741 0 0 0-1.238-.514zm-7.951 4.27a.945.945 0 0 0-.711.343c-.736.884-1.265 1.847-1.525 2.82-.357 1.336-.203 2.6.449 3.659C2.616 21.185 4.53 22 6.766 22c1.692 0 3.567-.464 5.359-1.436 1.71-.926 3.092-2.201 3.973-3.6A1.75 1.75 0 1 0 14 15.25c0 .326.096.629.252.89-.707 1.016-1.783 1.966-3.078 2.667-3.12 1.689-6.708 1.568-7.834-.264-.361-.587-.436-1.29-.22-2.094.18-.676.563-1.364 1.095-2.013.208-.254.288-.58.207-.899l-.008-.023a.989.989 0 0 0-.99-.744z" transform="scale(10.66667)" fill="#fff" font-family="none" font-weight="none" font-size="none" text-anchor="none" style="mix-blend-mode:normal"/></svg>