<svg width="67" height="67" fill="none" xmlns="http://www.w3.org/2000/svg"><path d="M.223 33.706v33h66v-66h-66v33ZM40.27 54.678a448.19 448.19 0 0 0 2.453-1.417l1.898-1.1.398.589c.556.847 1.769 2.01 2.503 2.398 2.106 1.11 4.997.954 6.421-.325a2.42 2.42 0 0 0 .86-1.985v.005c0-.764-.095-1.1-.494-1.677-.512-.732-1.56-1.348-4.535-2.64-3.404-1.466-4.87-2.376-6.212-3.823a8.668 8.668 0 0 1-1.796-3.24l-.016-.06c-.25-.932-.314-3.27-.116-4.21.701-3.292 3.185-5.582 6.768-6.264 1.163-.22 3.866-.138 5.008.145 1.677.418 2.953 1.166 4.127 2.382.608.649 1.51 1.831 1.582 2.117.022.083-2.85 2.008-4.587 3.089-.064.04-.317-.231-.597-.65-.853-1.237-1.74-1.77-3.102-1.864-2.002-.137-3.29.91-3.278 2.66 0 .03-.003.065-.003.101 0 .415.105.806.289 1.147l-.006-.014c.44.91 1.26 1.458 3.823 2.566 4.727 2.035 6.748 3.374 8.005 5.28 1.403 2.126 1.719 5.522.765 8.046-1.045 2.745-3.644 4.61-7.302 5.225-1.13.201-3.811.17-5.027-.05-2.65-.472-5.164-1.781-6.715-3.5-.608-.668-1.793-2.42-1.719-2.544.03-.044.303-.211.605-.387ZM14.682 33.885c0-1.469.03-2.695.072-2.723.033-.044 5.26-.066 11.597-.055l11.536.033.03 2.693.022 2.703h-8.594v24.409h-6.077v-24.41h-8.586v-2.65Z" fill="#D3DFFE"/></svg>