<?xml version="1.0" encoding="utf-8"?>
<!-- Generator: Adobe Illustrator 22.0.1, SVG Export Plug-In . SVG Version: 6.00 Build 0)  -->
<svg version="1.1" id="AI_layer" xmlns="http://www.w3.org/2000/svg" xmlns:xlink="http://www.w3.org/1999/xlink" x="0px" y="0px"
	 viewBox="0 0 640 480" style="enable-background:new 0 0 640 480;" xml:space="preserve">
<style type="text/css">
	.st0{stroke:#000000;stroke-width:4;stroke-miterlimit:10;}
	.st1{fill:#FFFFFF;stroke:#000000;stroke-width:0.75;stroke-miterlimit:10;}
	.st2{fill:url(#SVGID_1_);stroke:#000000;stroke-width:4;stroke-miterlimit:10;}
	.st3{fill:url(#SVGID_2_);stroke:#000000;stroke-width:4;stroke-miterlimit:10;}
	.st4{fill:#FFFFFF;stroke:#000000;stroke-width:4;stroke-miterlimit:10;}
</style>
<rect x="116" y="82.4" class="st0" width="409" height="314.6"/>
<polygon class="st1" points="381.5,132.7 381.5,216.3 276.7,216.3 276.7,345.6 211.2,345.6 211.2,216.3 170.2,216.3 170.2,132.7 "/>
<polygon class="st1" points="471.6,132.7 471.6,345.6 407,345.6 406.1,344.8 384.9,323.6 362.8,345.6 362.8,345.6 299.7,345.6 
	299.7,236.8 362.8,236.8 362.8,283.5 384.9,259.7 406.1,282.4 406.1,132.7 "/>
<radialGradient id="SVGID_1_" cx="322.5423" cy="710.6845" r="64.0613" gradientUnits="userSpaceOnUse">
	<stop  offset="0" style="stop-color:#FFFFFF"/>
	<stop  offset="8.510864e-02" style="stop-color:#FFEDD8"/>
	<stop  offset="0.2082" style="stop-color:#FFD5A7"/>
	<stop  offset="0.3345" style="stop-color:#FFC17D"/>
	<stop  offset="0.462" style="stop-color:#FFB05B"/>
	<stop  offset="0.591" style="stop-color:#FFA340"/>
	<stop  offset="0.7222" style="stop-color:#FF9A2D"/>
	<stop  offset="0.8568" style="stop-color:#FF9522"/>
	<stop  offset="1" style="stop-color:#FF931E"/>
</radialGradient>
<polygon class="st2" points="386.4,646.4 386.4,696.9 323,696.9 323,775 283.5,775 283.5,696.9 258.7,696.9 258.7,646.4 "/>
<radialGradient id="SVGID_2_" cx="386.8412" cy="710.6845" r="58.4362" gradientUnits="userSpaceOnUse">
	<stop  offset="0" style="stop-color:#FFFFFF"/>
	<stop  offset="8.510864e-02" style="stop-color:#FFEDD8"/>
	<stop  offset="0.2082" style="stop-color:#FFD5A7"/>
	<stop  offset="0.3345" style="stop-color:#FFC17D"/>
	<stop  offset="0.462" style="stop-color:#FFB05B"/>
	<stop  offset="0.591" style="stop-color:#FFA340"/>
	<stop  offset="0.7222" style="stop-color:#FF9A2D"/>
	<stop  offset="0.8568" style="stop-color:#FF9522"/>
	<stop  offset="1" style="stop-color:#FF931E"/>
</radialGradient>
<polygon class="st3" points="438.8,646.4 438.8,775 399.7,775 399.2,774.5 386.4,761.7 373,775 373,775 334.9,775 334.9,709.3 
	373,709.3 373,737.4 386.4,723.1 399.2,736.8 399.2,646.4 "/>
<polygon class="st4" points="261.1,624 261.1,636.9 245.4,636.9 245.4,652.1 233,652.1 233,624 "/>
<polygon class="st4" points="435.9,796.9 435.9,784 451.6,784 451.6,768.8 464,768.8 464,796.9 "/>
<polygon class="st4" points="-3.6,546.4 -3.6,596.9 -67,596.9 -67,675 -106.5,675 -106.5,596.9 -131.3,596.9 -131.3,546.4 "/>
<polygon class="st4" points="48.8,546.4 48.8,675 9.7,675 9.2,674.5 -3.6,661.7 -17,675 -17,675 -55.1,675 -55.1,609.3 -17,609.3 
	-17,637.4 -3.6,623.1 9.2,636.8 9.2,546.4 "/>
<polygon class="st4" points="-128.9,524 -128.9,536.9 -144.6,536.9 -144.6,552.1 -157,552.1 -157,524 "/>
<polygon class="st4" points="45.9,696.9 45.9,684 61.6,684 61.6,668.8 74,668.8 74,696.9 "/>
</svg>
