<svg xmlns="http://www.w3.org/2000/svg" xmlns:xlink="http://www.w3.org/1999/xlink" viewBox="0,0,256,256" width="48px" height="48px" fill-rule="nonzero"><g fill="#ffffff" fill-rule="nonzero" stroke="none" stroke-width="1" stroke-linecap="butt" stroke-linejoin="miter" stroke-miterlimit="10" stroke-dasharray="" stroke-dashoffset="0" font-family="none" font-weight="none" font-size="none" text-anchor="none" style="mix-blend-mode: normal"><g transform="scale(10.66667,10.66667)"><path d="M11.5,2c-3.084,0 -5.5,3.5823 -5.5,8.1543c0,2.07 0.50208,3.92761 1.33008,5.34961c-0.047,0.159 -0.08008,0.32209 -0.08008,0.49609c0,0.966 0.784,1.75 1.75,1.75c0.966,0 1.75,-0.784 1.75,-1.75c0,-0.966 -0.784,-1.75 -1.75,-1.75c-0.024,0 -0.04631,0.00681 -0.07031,0.00781c-0.57,-1.098 -0.92969,-2.53852 -0.92969,-4.10351c0,-3.336 1.603,-6.1543 3.5,-6.1543c1.162,0 2.21156,1.05853 2.85156,2.64453c0.13,0.321 0.40123,0.55691 0.74024,0.62891c0.009,0.002 0.01639,0.00291 0.02539,0.00391c0.761,0.165 1.40619,-0.60217 1.11719,-1.32617c-0.949,-2.384 -2.69438,-3.95117 -4.73437,-3.95117zM11.375,8.5c-0.966,0 -1.75,0.784 -1.75,1.75c0,0.966 0.784,1.75 1.75,1.75c0.687,0 1.2755,-0.39861 1.5625,-0.97461c1.293,0.058 2.73184,0.43297 4.08984,1.16797c1.96,1.062 3.43847,2.69186 3.85547,4.25586c0.215,0.803 0.13834,1.5087 -0.22266,2.0957c-0.662,1.077 -2.17345,1.55859 -3.93945,1.43359c-0.286,-0.02 -0.56348,0.07253 -0.77148,0.26953c-0.006,0.006 -0.01158,0.01158 -0.01758,0.01758c-0.616,0.579 -0.2795,1.64189 0.5625,1.71289c0.25,0.02 0.49623,0.02148 0.74023,0.02148c2.234,0 4.14891,-0.8152 5.12891,-2.4082c0.653,-1.059 0.80817,-2.3232 0.45117,-3.6582c-0.564,-2.107 -2.37294,-4.16405 -4.83594,-5.49805c-1.799,-0.975 -3.67123,-1.42888 -5.36523,-1.42188c-0.317,-0.318 -0.75428,-0.51367 -1.23828,-0.51367zM3.42383,12.76953c-0.26043,0.00647 -0.52044,0.11538 -0.71094,0.34375c-0.736,0.884 -1.26539,1.84631 -1.52539,2.82031c-0.357,1.335 -0.20278,2.6002 0.44922,3.6582c0.979,1.593 2.89391,2.4082 5.12891,2.4082c1.692,0 3.56738,-0.46355 5.35938,-1.43555c1.71,-0.926 3.09166,-2.20161 3.97266,-3.59961c0.8,-0.161 1.40234,-0.86784 1.40234,-1.71484c0,-0.966 -0.784,-1.75 -1.75,-1.75c-0.966,0 -1.75,0.784 -1.75,1.75c0,0.326 0.09595,0.62862 0.25195,0.89063c-0.707,1.015 -1.78312,1.96502 -3.07812,2.66602c-3.119,1.689 -6.70798,1.56833 -7.83398,-0.26367c-0.361,-0.587 -0.4357,-1.29075 -0.2207,-2.09375c0.181,-0.676 0.5637,-1.36467 1.0957,-2.01367c0.208,-0.254 0.28803,-0.58044 0.20703,-0.89844c-0.002,-0.008 -0.00581,-0.01644 -0.00781,-0.02344c-0.12125,-0.48062 -0.55619,-0.75492 -0.99023,-0.74414z"></path></g></g></svg>