<svg width="67" height="67" viewBox="0 0 67 67" fill="none" xmlns="http://www.w3.org/2000/svg">
<path d="M0.2229 33.7061V66.7061H66.2229V0.706055H0.2229V33.7061ZM40.2711 54.6776C40.5681 54.5098 41.6764 53.8691 42.7242 53.2613L44.6217 52.1613L45.0204 52.7498C45.5759 53.5968 46.7887 54.7601 47.5229 55.1478C49.6294 56.2588 52.5196 56.1021 53.9441 54.8233C54.4749 54.3751 54.8077 53.7096 54.8077 52.9671C54.8077 52.9231 54.8076 52.8818 54.8049 52.8378V52.8433C54.8049 52.0788 54.7086 51.7433 54.3099 51.1658C53.7984 50.4343 52.7506 49.8183 49.7751 48.5258C46.3706 47.0601 44.9049 46.1498 43.5629 44.7033C42.7544 43.7848 42.1301 42.6793 41.7672 41.4638L41.7506 41.4033C41.5004 40.4711 41.4371 38.1336 41.6352 37.1931C42.3364 33.9013 44.8197 31.6106 48.4029 30.9286C49.5662 30.7086 52.2694 30.7911 53.4106 31.0743C55.0882 31.4923 56.3641 32.2403 57.5384 33.4558C58.1461 34.1048 59.0481 35.2873 59.1197 35.5733C59.1417 35.6558 56.2707 37.5808 54.5327 38.6616C54.4694 38.7028 54.2164 38.4306 53.9359 38.0126C53.0834 36.7751 52.1951 36.2416 50.8339 36.1481C48.8319 36.0106 47.5449 37.0583 47.5559 38.8073C47.5559 38.8376 47.5532 38.8733 47.5532 38.9091C47.5532 39.3243 47.6576 39.7148 47.8419 40.0558L47.8364 40.0421C48.2764 40.9523 49.0959 41.4996 51.6589 42.6078C56.3862 44.6428 58.4074 45.9821 59.6642 47.8878C61.0667 50.0136 61.3829 53.4098 60.4286 55.9343C59.3836 58.6788 56.7849 60.5433 53.1274 61.1593C51.9972 61.3601 49.3159 61.3298 48.1004 61.1098C45.4494 60.6368 42.9359 59.3278 41.3849 57.6091C40.7772 56.9408 39.5919 55.1891 39.6662 55.0653C39.6964 55.0213 39.9687 54.8536 40.2711 54.6776ZM14.6824 33.8848C14.6824 32.4163 14.7127 31.1898 14.7539 31.1623C14.7869 31.1183 20.0147 31.0963 26.3507 31.1073L37.8869 31.1403L37.9171 33.8326L37.9392 36.5358H29.3454V60.9448H23.2679V36.5358H14.6824V33.8848Z" fill="#D3DFFE"/>
</svg>
