<svg xmlns="http://www.w3.org/2000/svg" xmlns:xlink="http://www.w3.org/1999/xlink" viewBox="0,0,256,256" width="64px" height="64px" fill-rule="nonzero"><g fill="#ffffff" fill-rule="nonzero" stroke="none" stroke-width="1" stroke-linecap="butt" stroke-linejoin="miter" stroke-miterlimit="10" stroke-dasharray="" stroke-dashoffset="0" font-family="none" font-weight="none" font-size="none" text-anchor="none" style="mix-blend-mode: normal"><g transform="scale(4,4)"><path d="M31.96484,2.00195c-0.01051,0.00036 -0.02075,0.00322 -0.03125,0.00391c-0.02592,0.00168 -0.05028,0.00993 -0.07617,0.01367c-0.09817,0.01412 -0.19199,0.04273 -0.2832,0.08594c-0.01574,0.00742 -0.03332,0.00536 -0.04883,0.01367l-26,14c-0.08326,0.04511 -0.15685,0.10166 -0.22266,0.16602c-0.0137,0.01335 -0.02224,0.03081 -0.03516,0.04492c-0.06534,0.07165 -0.11809,0.15143 -0.16016,0.23828c-0.01424,0.02924 -0.02767,0.05713 -0.03906,0.08789c-0.04021,0.10846 -0.06803,0.22064 -0.06836,0.33984v0.00195v0.00195v30c0,0.08825 0.01297,0.17666 0.03516,0.25977c0.02998,0.11115 0.08319,0.21269 0.14844,0.30664c0.01526,0.0221 0.03171,0.04158 0.04883,0.0625c0.07287,0.08895 0.15579,0.17006 0.25781,0.23047c0.00179,0.00107 0.00406,0.0009 0.00586,0.00195c0.00166,0.00097 0.00224,0.00294 0.00391,0.00391l25.98828,14.99414c0.00126,0.00074 0.00265,0.00122 0.00391,0.00195c0.00126,0.00075 0.00264,0.00121 0.00391,0.00195l0.00391,0.00195c0.04521,0.02604 0.09352,0.0403 0.14063,0.05859c0.03328,0.01291 0.06539,0.0318 0.09961,0.04102h0.00195c0.0852,0.02287 0.16998,0.03516 0.25586,0.03516h0.00195c0.08492,0 0.17096,-0.01149 0.25391,-0.0332c0.01696,-0.00447 0.03212,-0.01418 0.04883,-0.01953c0.06221,-0.0199 0.12498,-0.04183 0.18359,-0.07422l27,-15c0.0042,-0.00234 0.00561,-0.00738 0.00977,-0.00977c0.00929,-0.00531 0.02014,-0.00609 0.0293,-0.01172c0.09188,-0.05719 0.16873,-0.13217 0.23633,-0.21289c0.01751,-0.02093 0.03124,-0.04231 0.04688,-0.06445c0.05951,-0.08378 0.10722,-0.1733 0.13867,-0.27148c0.00409,-0.0128 0.0101,-0.02415 0.01367,-0.03711c0.0237,-0.08564 0.03906,-0.17435 0.03906,-0.26562v-30c0,-0.00695 -0.00377,-0.01262 -0.00391,-0.01953c-0.00268,-0.11036 -0.02797,-0.21567 -0.06445,-0.31641c-0.01283,-0.03549 -0.02636,-0.06808 -0.04297,-0.10156c-0.04043,-0.08212 -0.09104,-0.15634 -0.15234,-0.22461c-0.01509,-0.01678 -0.02484,-0.03702 -0.04102,-0.05273c-0.06908,-0.0672 -0.14617,-0.12619 -0.23437,-0.17187l-27,-14c-0.04126,-0.02143 -0.08577,-0.0316 -0.12891,-0.04687c-0.02455,-0.00875 -0.04712,-0.01858 -0.07227,-0.02539c-0.09651,-0.02606 -0.19603,-0.04243 -0.29492,-0.03906zM33,4.64453l23.79688,12.33789l-9.78125,4.89258l-14.01562,-7.47461zM31,4.67578v9.72461l-13.99414,7.46289l-8.90625,-4.85742zM32,16.13477l12.875,6.86523l-12.875,6.86523l-12.875,-6.86523zM58,18.61914v26.76367l-10,-5v-16.76562zM7,18.68555l9,4.9082v2.40625c0,0.553 0.448,1 1,1c0.552,0 1,-0.447 1,-1v-1.33203l13,6.93164v15.73242l-13,-6.93164v-2.40039c0,-0.553 -0.448,-1 -1,-1c-0.552,0 -1,0.447 -1,1v2.40625l-9,4.9082zM46,24.66797v16.33203c0,0.04996 0.02029,0.09265 0.02734,0.14063c0.0105,0.07197 0.01732,0.1431 0.04297,0.21094c0.02288,0.06032 0.06019,0.10999 0.09375,0.16406c0.03372,0.05501 0.06306,0.11015 0.10742,0.1582c0.04841,0.05233 0.10749,0.08983 0.16602,0.13086c0.0404,0.0284 0.06973,0.06709 0.11523,0.08984l10.30469,5.15234l-23.85742,13.25391v-11.30078v-17.40039zM17,29c-0.552,0 -1,0.447 -1,1v4c0,0.553 0.448,1 1,1c0.552,0 1,-0.447 1,-1v-4c0,-0.553 -0.448,-1 -1,-1zM43.10742,40.89844c-0.1295,0.01167 -0.25836,0.04998 -0.38086,0.11523c-0.487,0.26 -0.67311,0.86456 -0.41211,1.35156l0.94141,1.76563c0.18,0.337 0.52581,0.5293 0.88281,0.5293c0.158,0 0.3197,-0.03719 0.4707,-0.11719c0.487,-0.26 0.67116,-0.86652 0.41016,-1.35352l-0.94141,-1.76562c-0.195,-0.3645 -0.5822,-0.56041 -0.9707,-0.52539zM17.00391,42.13672l13.99609,7.46289v10.66992l-22.95898,-13.24609zM38.93945,43.12109c-0.12947,0.01148 -0.25861,0.04853 -0.38086,0.11328c-0.487,0.26 -0.67211,0.86652 -0.41211,1.35352l0.94141,1.76563c0.181,0.337 0.52777,0.5293 0.88477,0.5293c0.158,0 0.31775,-0.03819 0.46875,-0.11719c0.487,-0.26 0.67211,-0.86652 0.41211,-1.35352l-0.94141,-1.76562c-0.19575,-0.3645 -0.58425,-0.55984 -0.97266,-0.52539zM34.77344,45.3418c-0.12958,0.01167 -0.25836,0.04998 -0.38086,0.11523c-0.488,0.26 -0.67211,0.86652 -0.41211,1.35352l0.94141,1.76367c0.18,0.337 0.52581,0.5293 0.88281,0.5293c0.158,0 0.3197,-0.03719 0.4707,-0.11719c0.487,-0.26 0.67116,-0.86651 0.41016,-1.35352l-0.94141,-1.76562c-0.19425,-0.3645 -0.58197,-0.56041 -0.9707,-0.52539z"></path></g></g></svg>